<svg preserveAspectRatio="none" width="100%" height="100%" overflow="visible" style="display: block;" viewBox="0 0 99.1494 24.7734" fill="none" xmlns="http://www.w3.org/2000/svg">
<g id="Group">
<path id="Vector" d="M0.000111436 0.344254H3.7904V24.4291H0.000111436V0.344254Z" fill="var(--fill-0, #D2FF37)"/>
<path id="Vector_2" d="M4.9071 0.344254H9.66132L13.3469 14.7594H13.4167V0.344254H16.7926V24.4291H12.902L8.35718 6.8459H8.28739V24.4291H4.91146V0.344254H4.9071Z" fill="var(--fill-0, #D2FF37)"/>
<path id="Vector_3" d="M22.8031 24.7733C20.9668 24.7733 19.5754 24.2591 18.6377 23.2264C17.6956 22.1718 17.2245 20.6684 17.2245 18.7205V17.3435H20.8054V18.9951C20.8054 20.5551 21.4597 21.3351 22.7682 21.3351C23.4093 21.3351 23.8935 21.1521 24.2162 20.7861C24.5608 20.3982 24.7309 19.7751 24.7309 18.9297C24.7309 17.9187 24.4998 17.0385 24.0418 16.2803C23.5838 15.5002 22.7333 14.572 21.4946 13.4913C19.9331 12.1143 18.8427 10.8767 18.2233 9.77425C17.604 8.64997 17.2943 7.3906 17.2943 5.98743C17.2943 4.08313 17.7784 2.6146 18.7424 1.58183C19.7063 0.527273 21.1064 0 22.9426 0C24.7789 0 26.1223 0.527273 27.0426 1.58183C27.9847 2.6146 28.4558 4.10492 28.4558 6.0528V7.05071H24.8749V5.81313C24.8749 4.98953 24.7135 4.39253 24.3907 4.02213C24.068 3.63429 23.5969 3.4382 22.9775 3.4382C21.717 3.4382 21.0846 4.20515 21.0846 5.74341C21.0846 6.61494 21.3157 7.42982 21.7737 8.18806C22.2579 8.94629 23.1171 9.86141 24.3558 10.9421C25.9391 12.3191 27.0295 13.5698 27.6271 14.6941C28.2246 15.8183 28.5212 17.1387 28.5212 18.6508C28.5212 20.6249 28.0283 22.137 27.0382 23.1915C26.0743 24.2461 24.6611 24.7733 22.8031 24.7733Z" fill="var(--fill-0, #D2FF37)"/>
<path id="Vector_4" d="M28.9705 0.344254H32.7607V24.4291H28.9705V0.344254Z" fill="var(--fill-0, #D2FF37)"/>
<path id="Vector_5" d="M39.2464 24.7733C37.4101 24.7733 36.01 24.2591 35.0461 23.2264C34.0821 22.1718 33.598 20.6684 33.598 18.7205V6.05716C33.598 4.10928 34.0821 2.6146 35.0461 1.58619C36.01 0.531635 37.4101 0.00435494 39.2464 0.00435494C41.0826 0.00435494 42.4827 0.531635 43.4466 1.58619C44.4106 2.61896 44.8947 4.10928 44.8947 6.05716V8.1227H41.3138V5.81748C41.3138 4.23565 40.6595 3.44256 39.351 3.44256C38.0425 3.44256 37.3883 4.23565 37.3883 5.81748V18.9951C37.3883 20.5551 38.0425 21.3351 39.351 21.3351C40.6595 21.3351 41.3138 20.5551 41.3138 18.9951V14.2801H39.4208V10.8375H44.8947V18.7162C44.8947 20.6641 44.4106 22.1675 43.4466 23.222C42.4827 24.2548 41.0826 24.769 39.2464 24.769V24.7733Z" fill="var(--fill-0, #D2FF37)"/>
<path id="Vector_6" d="M45.6058 0.344254H51.0143L53.4263 17.5832H53.496L55.908 0.344254H61.3165V24.4291H57.7356V6.19225H57.6658L54.9092 24.4291H51.7427L48.9861 6.19225H48.9163V24.4291H45.6102V0.344254H45.6058Z" fill="var(--fill-0, #D2FF37)"/>
<path id="Vector_7" d="M65.342 0.344254H70.4714L74.3968 24.4291H70.6066L69.9174 19.6487V19.7185H65.6125L64.9233 24.4335H61.4122L65.3377 0.348616L65.342 0.344254ZM69.4725 16.4458L67.7846 4.54069H67.7148L66.0617 16.4458H69.4725Z" fill="var(--fill-0, #D2FF37)"/>
<path id="Vector_8" d="M74.5147 0.344254H80.1282C82.0778 0.344254 83.5041 0.801811 84.3983 1.72128C85.2924 2.6146 85.7416 4.0047 85.7416 5.88285V7.36446C85.7416 9.86576 84.9173 11.4476 83.2642 12.1143V12.184C84.1845 12.4586 84.8257 13.0207 85.1921 13.8705C85.5803 14.7202 85.7765 15.8532 85.7765 17.2782V21.5095C85.7765 22.198 85.7983 22.7601 85.8463 23.1959C85.8943 23.6099 86.0077 24.0195 86.1909 24.4335H82.3352C82.1956 24.0456 82.104 23.6752 82.0604 23.331C82.0124 22.9867 81.9906 22.3679 81.9906 21.4746V17.069C81.9906 15.9665 81.8074 15.1995 81.4411 14.7638C81.0965 14.328 80.4902 14.1101 79.6179 14.1101H78.3094V24.4335H74.5234V0.348616L74.5147 0.344254ZM79.6789 10.6676C80.4379 10.6676 81.0005 10.4715 81.3669 10.0836C81.7551 9.69582 81.9514 9.04217 81.9514 8.1227V6.26633C81.9514 5.39479 81.79 4.76293 81.4672 4.3751C81.1706 3.98727 80.6865 3.79117 80.0191 3.79117H78.2963V10.6719H79.6746L79.6789 10.6676Z" fill="var(--fill-0, #D2FF37)"/>
<path id="Vector_9" d="M86.6838 0.344254H90.4741V10.4933L95.2937 0.344254H99.0796L94.5697 9.18597L99.1494 24.4291H95.189L91.9876 13.6962L90.4741 16.7596V24.4335H86.6838V0.348616V0.344254Z" fill="var(--fill-0, #D2FF37)"/>
</g>
</svg>
