<svg preserveAspectRatio="none" width="100%" height="100%" overflow="visible" style="display: block;" viewBox="0 0 32.9801 37.8807" fill="none" xmlns="http://www.w3.org/2000/svg">
<g id="Group">
<path id="Vector" d="M32.8304 19.7022L11.5891 3.21712C12.8758 2.17128 14.0534 1.1908 15.3052 0.284408C16.0729 -0.269016 17.1109 0.0665213 17.8045 0.598157L32.4029 11.9717C32.5687 12.1852 32.8566 12.512 32.8566 12.7735L32.8304 19.6978V19.7022Z" fill="var(--fill-0, #D2FF37)"/>
<path id="Vector_2" d="M14.7383 20.0203L11.8073 22.3386C11.3755 22.6785 10.7169 22.7613 10.2371 22.3909L0.671977 14.9785C-0.283228 14.2377 -0.18291 12.621 0.737402 11.8846L8.0301 6.07144C8.56659 5.64439 9.34297 5.49187 9.91871 5.92764L13.0068 8.28078C13.3034 8.50738 13.4822 8.87778 13.4778 9.21332C13.4735 9.54886 13.3164 9.91927 13.0242 10.1589L8.7018 13.6015L14.6991 18.2337C15.2225 18.639 15.3141 19.5671 14.7383 20.0203Z" fill="var(--fill-0, #D2FF37)"/>
<path id="Vector_3" d="M19.7236 29.6464C19.0999 28.984 19.3441 28.1779 19.9766 27.6767L24.2728 24.2952L18.5896 19.8939C18.3017 19.6717 18.1447 19.3143 18.1447 18.9919C18.1447 18.6476 18.3279 18.2859 18.6288 18.0506L21.2022 16.033C21.7648 15.5929 22.4278 15.5973 22.9905 16.033L32.1631 23.1447C33.1357 23.8986 33.3102 25.5371 32.3026 26.3302L25.1059 31.9995C24.504 32.4745 23.6229 32.6357 22.9861 32.1433L19.7236 29.6377V29.6464Z" fill="var(--fill-0, #D2FF37)"/>
<path id="Vector_4" d="M17.8745 37.5119C17.0632 38.122 15.9641 37.9128 15.2226 37.3376L0.807317 26.1297C0.493277 25.8639 0.249023 25.5153 0.249023 25.11L0.283917 18.7173L6.19397 23.2188L21.2243 34.8189C20.112 35.7819 19.0347 36.6404 17.8745 37.5076V37.5119Z" fill="var(--fill-0, #D2FF37)"/>
</g>
</svg>
