<svg preserveAspectRatio="none" width="100%" height="100%" overflow="visible" style="display: block;" viewBox="0 0 32.9803 37.8807" fill="none" xmlns="http://www.w3.org/2000/svg">
<g id="Group">
<path id="Vector" d="M32.8307 19.7022L11.5894 3.21712C12.876 2.17128 14.0537 1.1908 15.3055 0.284408C16.0731 -0.269016 17.1112 0.0665213 17.8047 0.598157L32.4032 11.9717C32.569 12.1852 32.8568 12.512 32.8568 12.7735L32.8307 19.6978V19.7022Z" fill="var(--fill-0, #D2FF37)"/>
<path id="Vector_2" d="M14.7383 20.0203L11.8073 22.3386C11.3755 22.6785 10.7169 22.7613 10.2371 22.3909L0.671977 14.9785C-0.283228 14.2377 -0.18291 12.621 0.737402 11.8845L8.0301 6.07139C8.56659 5.64434 9.34297 5.49182 9.91871 5.92758L13.0068 8.28072C13.3034 8.50732 13.4822 8.87772 13.4778 9.21326C13.4735 9.5488 13.3164 9.91921 13.0242 10.1589L8.7018 13.6014L14.6991 18.2336C15.2225 18.6389 15.3141 19.5671 14.7383 20.0203Z" fill="var(--fill-0, #D2FF37)"/>
<path id="Vector_3" d="M19.7239 29.6464C19.1001 28.984 19.3444 28.1779 19.9768 27.6767L24.2731 24.2952L18.5898 19.8939C18.302 19.6717 18.1449 19.3143 18.1449 18.9919C18.1449 18.6476 18.3281 18.2859 18.6291 18.0506L21.2025 16.033C21.7651 15.5929 22.4281 15.5973 22.9907 16.033L32.1633 23.1447C33.136 23.8986 33.3104 25.5371 32.3029 26.3302L25.1062 31.9995C24.5042 32.4745 23.6232 32.6357 22.9864 32.1433L19.7239 29.6377V29.6464Z" fill="var(--fill-0, #D2FF37)"/>
<path id="Vector_4" d="M17.8744 37.512C17.0631 38.122 15.964 37.9129 15.2225 37.3377L0.807198 26.1297C0.493158 25.8639 0.248905 25.5153 0.248905 25.11L0.283799 18.7173L6.19385 23.2188L21.2242 34.8189C20.1119 35.782 19.0346 36.6404 17.8744 37.5076V37.512Z" fill="var(--fill-0, #D2FF37)"/>
</g>
</svg>
