<svg width="105" height="21" viewBox="0 0 105 21" fill="none" xmlns="http://www.w3.org/2000/svg">
<path d="M23.1914 0.284668H26.3184V20.1697H23.1914V0.284668Z" fill="white"/>
<path d="M27.2393 0.284668H31.1615L34.2022 12.1862H34.2598V0.284668H37.045V20.1697H33.8352L30.0856 5.65258H30.028V20.1697H27.2429V0.284668H27.2393Z" fill="white"/>
<path d="M42.0038 20.4535C40.4888 20.4535 39.3409 20.0289 38.5673 19.1762C37.79 18.3056 37.4014 17.0643 37.4014 15.4561V14.3192H40.3557V15.6828C40.3557 16.9708 40.8954 17.6148 41.975 17.6148C42.5039 17.6148 42.9034 17.4637 43.1696 17.1615C43.4539 16.8413 43.5943 16.3268 43.5943 15.6288C43.5943 14.7941 43.4036 14.0674 43.0257 13.4414C42.6479 12.7974 41.9462 12.031 40.9242 11.1388C39.636 10.0019 38.7364 8.98009 38.2254 8.06985C37.7144 7.14162 37.4589 6.10186 37.4589 4.94337C37.4589 3.37113 37.8584 2.15867 38.6536 1.306C39.4489 0.435329 40.604 0 42.1189 0C43.6338 0 44.7422 0.435329 45.5014 1.306C46.2787 2.15867 46.6673 3.38912 46.6673 4.99734V5.82123H43.713V4.79946C43.713 4.11947 43.5799 3.62658 43.3136 3.32076C43.0473 3.00056 42.6587 2.83866 42.1477 2.83866C41.1078 2.83866 40.586 3.47187 40.586 4.74189C40.586 5.46145 40.7767 6.13424 41.1545 6.76025C41.554 7.38627 42.2628 8.14181 43.2848 9.03406C44.591 10.171 45.4906 11.2035 45.9836 12.1318C46.4766 13.06 46.7213 14.1501 46.7213 15.3986C46.7213 17.0284 46.3147 18.2768 45.4978 19.1475C44.7026 20.0181 43.5367 20.4535 42.0038 20.4535Z" fill="white"/>
<path d="M47.0918 0.284668H50.2188V20.1697H47.0918V0.284668Z" fill="white"/>
<path d="M55.5701 20.4538C54.0552 20.4538 52.9001 20.0292 52.1048 19.1766C51.3096 18.3059 50.9102 17.0647 50.9102 15.4564V5.00124C50.9102 3.39303 51.3096 2.15899 52.1048 1.30991C52.9001 0.439241 54.0552 0.00390625 55.5701 0.00390625C57.0851 0.00390625 58.2402 0.439241 59.0354 1.30991C59.8307 2.16259 60.2301 3.39303 60.2301 5.00124V6.7066H57.2758V4.80336C57.2758 3.49736 56.736 2.84257 55.6565 2.84257C54.577 2.84257 54.0372 3.49736 54.0372 4.80336V15.6831C54.0372 16.9711 54.577 17.6151 55.6565 17.6151C56.736 17.6151 57.2758 16.9711 57.2758 15.6831V11.7903H55.7141V8.94803H60.2301V15.4528C60.2301 17.0611 59.8307 18.3023 59.0354 19.173C58.2402 20.0256 57.0851 20.4502 55.5701 20.4502V20.4538Z" fill="white"/>
<path d="M60.8164 0.284668H65.2785L67.2684 14.5175H67.326L69.3159 0.284668H73.7779V20.1697H70.8236V5.11291H70.7661L68.4919 20.1697H65.8794L63.6052 5.11291H63.5476V20.1697H60.82V0.284668H60.8164Z" fill="white"/>
<path d="M77.0996 0.284668H81.3314L84.5699 20.1697H81.4429L80.8744 16.2229V16.2805H77.3227L76.7542 20.1733H73.8574L77.096 0.288269L77.0996 0.284668ZM80.5073 13.5785L79.1147 3.74935H79.0572L77.6933 13.5785H80.5073Z" fill="white"/>
<path d="M84.667 0.284668H89.2982C90.9067 0.284668 92.0834 0.662438 92.821 1.42157C93.5587 2.15912 93.9293 3.30682 93.9293 4.85747V6.08072C93.9293 8.14585 93.2492 9.45185 91.8854 10.0023V10.0599C92.6447 10.2865 93.1737 10.7507 93.4759 11.4522C93.7962 12.1538 93.9581 13.0892 93.9581 14.2657V17.7592C93.9581 18.3276 93.9761 18.7917 94.0157 19.1515C94.0553 19.4933 94.1489 19.8315 94.3 20.1733H91.119C91.0038 19.8531 90.9283 19.5473 90.8923 19.263C90.8527 18.9788 90.8347 18.4679 90.8347 17.7304V14.093C90.8347 13.1828 90.6836 12.5496 90.3813 12.1898C90.097 11.83 89.5968 11.6501 88.8771 11.6501H87.7976V20.1733H84.6742V0.288269L84.667 0.284668ZM88.9275 8.80785C89.5537 8.80785 90.0179 8.64595 90.3201 8.32574C90.6404 8.00554 90.8023 7.46587 90.8023 6.70674V5.17407C90.8023 4.45451 90.6692 3.93283 90.4029 3.61263C90.1582 3.29243 89.7588 3.13053 89.2082 3.13053H87.7868V8.81144H88.9239L88.9275 8.80785Z" fill="white"/>
<path d="M94.7061 0.284668H97.8331V8.66394L101.809 0.284668H104.933L101.212 7.5846L104.99 20.1697H101.723L99.0817 11.3083L97.8331 13.8376V20.1733H94.7061V0.288269V0.284668Z" fill="white"/>
<path d="M17.1122 10.6594L6.04004 2.06657C6.71074 1.52143 7.3246 1.01035 7.97711 0.537896C8.37725 0.249424 8.91836 0.424323 9.27985 0.701438L16.8894 6.62989C16.9758 6.74119 17.1259 6.91155 17.1259 7.04783L17.1122 10.6571V10.6594Z" fill="white"/>
<path d="M7.68248 10.8256L6.15465 12.034C5.92957 12.2112 5.58627 12.2544 5.33618 12.0613L0.350273 8.19757C-0.147635 7.81143 -0.0953431 6.96872 0.384377 6.58485L4.18576 3.55476C4.4654 3.33216 4.8701 3.25266 5.17021 3.4798L6.77988 4.70637C6.93448 4.82449 7.0277 5.01756 7.02543 5.19246C7.02315 5.36736 6.9413 5.56044 6.78898 5.68537L4.53588 7.4798L7.66202 9.89434C7.93485 10.1056 7.98259 10.5894 7.68248 10.8256Z" fill="white"/>
<path d="M10.281 15.8429C9.95592 15.4976 10.0832 15.0774 10.4129 14.8162L12.6524 13.0535L9.68991 10.7594C9.53986 10.6435 9.45801 10.4573 9.45801 10.2892C9.45801 10.1098 9.5535 9.92122 9.71037 9.79857L11.0518 8.74689C11.3451 8.51748 11.6906 8.51975 11.9839 8.74689L16.7652 12.4539C17.2722 12.8468 17.3632 13.7009 16.838 14.1143L13.0866 17.0694C12.7728 17.317 12.3136 17.4011 11.9817 17.1444L10.281 15.8383V15.8429Z" fill="white"/>
<path d="M9.31731 19.9432C8.89443 20.2612 8.3215 20.1522 7.93499 19.8523L0.420898 14.0102C0.257202 13.8716 0.129883 13.6899 0.129883 13.4787L0.148071 10.1465L3.22874 12.4929L11.0634 18.5394C10.4836 19.0414 9.92208 19.4889 9.31731 19.9409V19.9432Z" fill="white"/>
</svg>
