<svg width="106" height="24" viewBox="0 0 106 24" fill="none" xmlns="http://www.w3.org/2000/svg">
<path d="M32.0321 23.3073H29.9096L34.827 16.5711L30.1324 9.8916H32.2549L35.0498 13.9179L36.1961 15.5949L37.3141 13.9179L40.1657 9.8916H42.2882L37.4234 16.5144L42.1464 23.3073H40.0239L37.2574 19.3093L36.0543 17.5473L34.8229 19.3377L32.028 23.3073H32.0321Z" fill="#09234F"/>
<path d="M49.162 23.5868C45.4152 23.5868 42.8188 21.043 42.8188 16.5995C42.8188 12.1559 45.3059 9.61212 48.9393 9.61212C52.5726 9.61212 54.8936 12.0709 54.8936 16.1255C54.8936 16.4617 54.8369 16.7979 54.8086 17.0207H44.5808C44.6942 20.3747 46.5089 22.0516 49.1661 22.0516C51.8233 22.0516 53.0506 20.5691 53.638 19.2567L54.7559 20.5691C53.804 22.2177 52.0177 23.5868 49.1661 23.5868H49.162ZM48.9393 11.123C46.4806 11.123 44.8603 12.6623 44.6092 15.68H53.2167C53.0506 12.6623 51.398 11.123 48.9393 11.123Z" fill="#09234F"/>
<path d="M59.9204 23.3073H58.0774V4.58124H59.9204V23.3073Z" fill="#09234F"/>
<path d="M69.4069 23.3073H67.1143L62.0551 9.8916H64.0682L66.9766 18.0536L68.3173 21.9098L69.6013 18.0536L72.5097 9.8916H74.4661L69.4069 23.3073Z" fill="#09234F"/>
<path d="M78.4398 7.48959H76.5967V4.58124H78.4398V7.48959ZM78.4398 23.3073H76.5967V9.89161H78.4398V23.3073Z" fill="#09234F"/>
<path d="M87.6184 23.5868C83.9283 23.5868 81.3562 20.8486 81.3562 16.5995C81.3562 12.3503 83.9283 9.61212 87.6184 9.61212C91.3085 9.61212 93.9049 12.3503 93.9049 16.5995C93.9049 20.8486 91.3044 23.5868 87.6184 23.5868ZM87.6184 22.0233C90.2756 22.0233 92.0619 20.1519 92.0619 16.5995C92.0619 13.0471 90.2715 11.123 87.6184 11.123C84.9652 11.123 83.2032 13.0228 83.2032 16.5995C83.2032 20.1762 84.9936 22.0233 87.6184 22.0233Z" fill="#09234F"/>
<path d="M98.8709 23.3073H97.0279V9.89164H98.8709V13.5534C99.3732 11.4309 100.856 9.5838 103.148 9.5838C104.712 9.5838 106 10.5883 106 12.4354C106 13.44 105.749 14.2785 105.498 14.7281H103.513C103.877 14.3068 104.214 13.4441 104.214 12.6299C104.214 11.763 103.711 10.9813 102.48 10.9813C100.467 10.9813 98.875 13.2172 98.875 15.5382V23.3073H98.8709Z" fill="#09234F"/>
<path d="M9.81864 23.9919H0L10.5032 0H17.5634L21.6707 9.37721L21.2778 9.53114C19.4955 10.2197 17.8267 10.9772 16.174 11.8481L15.7892 12.0506L14.0353 8.06076L10.7503 15.5747C13.691 13.6425 16.4333 12.1641 19.2849 10.961C21.7638 9.91595 24.1213 9.17873 26.4949 8.69671L26.8149 8.6319L29.3992 14.5458L28.8645 14.6147C27.3132 14.8213 25.8185 15.1818 24.1618 15.7529C22.2378 16.4172 20.2894 17.28 18.2074 18.398C15.3396 19.9494 12.6298 21.7519 9.93206 23.9109L9.82269 24L9.81864 23.9919ZM1.23948 23.1818H9.53915C12.2409 21.0349 14.9507 19.2324 17.8267 17.681C19.9492 16.5428 21.934 15.6597 23.9026 14.9833C25.4215 14.4608 26.8109 14.1043 28.2326 13.8856L26.337 9.55544C24.1253 10.0253 21.9178 10.7301 19.6008 11.7063C16.4292 13.043 13.3953 14.7321 10.0536 17.0167L8.887 17.8147L14.0313 6.04354L16.1781 10.9327C17.612 10.1954 19.0621 9.53924 20.5892 8.93164L17.0327 0.810127H11.0338L1.23948 23.1858V23.1818Z" fill="#09234F"/>
</svg>
