<svg width="295" height="59" viewBox="0 0 295 59" fill="none" xmlns="http://www.w3.org/2000/svg">
<path d="M61.8379 0.806641H70.718V57.2759H61.8379V0.806641Z" fill="black"/>
<path d="M73.334 0.806641H84.4725L93.1073 34.6044H93.2708V0.806641H101.18V57.2759H92.065L81.417 16.0504H81.2535V57.2759H73.3442V0.806641H73.334Z" fill="black"/>
<path d="M115.262 58.0835C110.96 58.0835 107.7 56.8779 105.503 54.4565C103.296 51.984 102.192 48.4591 102.192 43.8921V40.6636H110.582V44.5358C110.582 48.1935 112.115 50.0223 115.18 50.0223C116.683 50.0223 117.817 49.5932 118.573 48.735C119.38 47.8257 119.779 46.3646 119.779 44.3825C119.779 42.0122 119.237 39.9484 118.164 38.1706C117.091 36.3418 115.099 34.1656 112.197 31.6317C108.538 28.4032 105.984 25.5016 104.532 22.9167C103.081 20.2807 102.356 17.328 102.356 14.0381C102.356 9.57329 103.49 6.13017 105.749 3.70875C108.007 1.23624 111.287 0 115.589 0C119.891 0 123.039 1.23624 125.195 3.70875C127.402 6.13017 128.506 9.62439 128.506 14.1914V16.5311H120.116V13.6294C120.116 11.6984 119.738 10.2987 118.982 9.43026C118.226 8.52095 117.122 8.06119 115.671 8.06119C112.718 8.06119 111.236 9.85937 111.236 13.466C111.236 15.5094 111.778 17.4199 112.851 19.1977C113.985 20.9754 115.998 23.121 118.9 25.6548C122.61 28.8834 125.164 31.8157 126.564 34.4516C127.964 37.0876 128.659 40.1834 128.659 43.7287C128.659 48.3569 127.504 51.9022 125.185 54.3747C122.926 56.8472 119.615 58.0835 115.262 58.0835Z" fill="black"/>
<path d="M129.711 0.806641H138.591V57.2759H129.711V0.806641Z" fill="black"/>
<path d="M153.787 58.083C149.485 58.083 146.205 56.8775 143.946 54.456C141.688 51.9835 140.554 48.4587 140.554 43.8917V14.2011C140.554 9.63416 141.688 6.12974 143.946 3.71853C146.205 1.24602 149.485 0.00976562 153.787 0.00976562C158.089 0.00976562 161.369 1.24602 163.628 3.71853C165.886 6.13996 167.02 9.63416 167.02 14.2011V19.044H158.631V13.6392C158.631 9.93044 157.098 8.07096 154.032 8.07096C150.967 8.07096 149.434 9.93044 149.434 13.6392V44.5353C149.434 48.193 150.967 50.0219 154.032 50.0219C157.098 50.0219 158.631 48.193 158.631 44.5353V33.4806H154.196V25.4092H167.02V43.8815C167.02 48.4484 165.886 51.9733 163.628 54.4458C161.369 56.8672 158.089 58.0728 153.787 58.0728V58.083Z" fill="black"/>
<path d="M168.686 0.806641H181.357L187.008 41.225H187.171L192.822 0.806641H205.494V57.2759H197.104V14.5178H196.94L190.482 57.2759H183.063L176.605 14.5178H176.442V57.2759H168.696V0.806641H168.686Z" fill="black"/>
<path d="M214.926 0.806641H226.943L236.14 57.2759H227.26L225.645 46.0678V46.2313H215.559L213.945 57.2861H205.719L214.916 0.816868L214.926 0.806641ZM224.603 38.5584L220.648 10.6456H220.485L216.612 38.5584H224.603Z" fill="black"/>
<path d="M236.415 0.806641H249.567C254.134 0.806641 257.476 1.87943 259.571 4.03521C261.666 6.12969 262.718 9.38891 262.718 13.7924V17.2662C262.718 23.1307 260.787 26.8395 256.914 28.4027V28.5662C259.07 29.2098 260.572 30.5278 261.431 32.5201C262.34 34.5125 262.8 37.1689 262.8 40.5098V50.4305C262.8 52.0448 262.851 53.3628 262.963 54.3845C263.076 55.3551 263.342 56.3155 263.771 57.2861H254.737C254.41 56.3768 254.196 55.5083 254.094 54.7012C253.981 53.8941 253.93 52.4432 253.93 50.3488V40.0194C253.93 37.4345 253.501 35.6363 252.642 34.6146C251.835 33.5929 250.415 33.0821 248.371 33.0821H245.305V57.2861H236.435V0.816868L236.415 0.806641ZM248.514 25.0107C250.292 25.0107 251.61 24.5509 252.469 23.6416C253.378 22.7323 253.838 21.1997 253.838 19.0439V14.6915C253.838 12.6481 253.46 11.1667 252.704 10.2573C252.009 9.34803 250.875 8.88827 249.311 8.88827H245.275V25.0209H248.504L248.514 25.0107Z" fill="black"/>
<path d="M264.926 0.806641H273.806V24.602L285.098 0.806641H293.968L283.401 21.5369L294.131 57.2759H284.852L277.352 32.1115L273.806 39.294V57.2861H264.926V0.816868V0.806641Z" fill="black"/>
<path d="M48.5978 30.2696L17.1553 5.8676C19.0599 4.3195 20.8031 2.86815 22.6561 1.52646C23.7924 0.707258 25.329 1.20394 26.3556 1.99089L47.9651 18.8265C48.2104 19.1426 48.6365 19.6264 48.6365 20.0134L48.5978 30.2631V30.2696Z" fill="black"/>
<path d="M21.8165 30.7412L17.4778 34.1728C16.8386 34.676 15.8637 34.7985 15.1535 34.2502L0.994696 23.278C-0.41925 22.1815 -0.270753 19.7884 1.09154 18.6982L11.8866 10.0934C12.6807 9.46122 13.83 9.23545 14.6822 9.88049L19.2533 13.3637C19.6924 13.6991 19.9571 14.2474 19.9506 14.7441C19.9442 15.2408 19.7117 15.7891 19.2791 16.1439L12.8809 21.2397L21.7584 28.0965C22.5332 28.6964 22.6687 30.0703 21.8165 30.7412Z" fill="black"/>
<path d="M29.1966 44.9899C28.2733 44.0094 28.6349 42.8161 29.5711 42.0743L35.9306 37.0688L27.5179 30.5538C27.0918 30.2249 26.8594 29.6959 26.8594 29.2186C26.8594 28.709 27.1305 28.1736 27.576 27.8253L31.3853 24.8387C32.2182 24.1872 33.1995 24.1937 34.0324 24.8387L47.6102 35.3658C49.0499 36.4818 49.3082 38.9071 47.8168 40.0811L37.1637 48.4731C36.2728 49.1762 34.9686 49.4149 34.026 48.686L29.1966 44.977V44.9899Z" fill="black"/>
<path d="M26.4593 56.6332C25.2585 57.5363 23.6315 57.2267 22.5339 56.3752L1.19556 39.7847C0.730697 39.3912 0.369141 38.8752 0.369141 38.2753L0.420792 28.8125L9.16918 35.4758L31.4178 52.6468C29.7715 54.0724 28.1767 55.3431 26.4593 56.6268V56.6332Z" fill="black"/>
</svg>
