<svg width="32" height="24" viewBox="0 0 32 24" fill="none" xmlns="http://www.w3.org/2000/svg">
<g clip-path="url(#clip0_392_5334)">
<path d="M0 0H32V24H0V0Z" fill="#012169"/>
<path d="M32 0V3L20.125 12L32 20.7656V24H27.8125L15.875 15.1875L4.25 24H0V20.8125L11.625 12.0469L0 3.46875V0H3.875L15.875 8.8125L27.5 0H32Z" fill="white"/>
<path d="M11.5 15.1875L12.1875 16.7812L2.625 24H0V23.8594L11.5 15.1875ZM19.25 14.625L22.625 15L32 21.8906V24L19.25 14.625ZM32 0L20 9.1875L19.75 7.125L29.125 0H32ZM0 0.046875L12.0625 8.90625L8.375 8.53125L0 2.29688V0.046875Z" fill="#C8102E"/>
<path d="M11 0V24H21V0H11ZM0 8.25V15.75H32V8.25H0Z" fill="white"/>
<path d="M0 9.75V14.25H32V9.75H0ZM13 0V24H19V0H13Z" fill="#C8102E"/>
</g>
<defs>
<clipPath id="clip0_392_5334">
<rect width="32" height="24" fill="white"/>
</clipPath>
</defs>
</svg>
