<svg width="88" height="100" viewBox="0 0 88 100" fill="none" xmlns="http://www.w3.org/2000/svg">
<g opacity="0.5" clip-path="url(#clip0_192_18045)">
<path fill-rule="evenodd" clip-rule="evenodd" d="M55.2462 70.8659C39.3417 70.8659 36.0073 63.5091 36.0073 57.3324C36.0073 56.7464 36.4756 56.2744 37.0569 56.2744H41.7556C42.2723 56.2744 42.7083 56.6569 42.789 57.1696C43.4994 61.9955 45.6066 64.4287 55.2301 64.4287C62.8917 64.4287 66.1453 62.6872 66.1453 58.5856C66.1453 56.2256 65.2169 54.4759 53.3167 53.304C43.3622 52.3112 37.2103 50.1058 37.2103 42.0736C37.2103 34.6843 43.3945 30.2816 53.7607 30.2816C65.4026 30.2816 71.167 34.3506 71.8936 43.1071C71.9178 43.4082 71.8128 43.7012 71.611 43.9209C71.4092 44.1325 71.1266 44.2627 70.836 44.2627H66.1211C65.6286 44.2627 65.2007 43.9128 65.1039 43.4408C63.9655 38.3708 61.2206 36.7432 53.7446 36.7432C45.3806 36.7432 44.4117 39.681 44.4117 41.8783C44.4117 44.5475 45.5582 45.3288 56.8448 46.8343C68.0183 48.3317 73.3226 50.4395 73.3226 58.3578C73.3226 66.3412 66.7185 70.9147 55.1978 70.9147L55.2462 70.8659ZM44.0161 100C42.684 100 41.3681 99.6501 40.2055 98.9746L28.0712 91.7318C26.2547 90.7064 27.1428 90.3483 27.7402 90.1367C30.1541 89.2822 30.6466 89.0951 33.2301 87.6139C33.5046 87.4593 33.8598 87.5163 34.1343 87.679L43.4591 93.2536C43.7982 93.4408 44.2745 93.4408 44.5894 93.2536L80.9439 72.1029C81.2829 71.9076 81.5009 71.5169 81.5009 71.11V28.833C81.5009 28.4098 81.2829 28.0355 80.9358 27.8239L44.5894 6.68946C44.2503 6.48601 43.8062 6.48601 43.4672 6.68946L7.13688 27.8239C6.78165 28.0274 6.56367 28.418 6.56367 28.8249V71.11C6.56367 71.5169 6.78165 71.8994 7.12881 72.0947L17.0833 77.889C22.4844 80.6152 25.7945 77.4007 25.7945 74.1781V32.4382C25.7945 31.8441 26.2547 31.3802 26.8521 31.3802H31.4539C32.0272 31.3802 32.5035 31.836 32.5035 32.4382V74.1943C32.5035 81.4616 28.5717 85.6283 21.7417 85.6283C19.6426 85.6283 17.9794 85.6283 13.3615 83.3333L3.81064 77.7914C1.45321 76.416 0 73.8525 0 71.11V28.8249C0 26.0742 1.45321 23.5026 3.81064 22.1436L40.1974 0.984711C42.4983 -0.325511 45.5582 -0.325511 47.8429 0.984711L84.1894 22.1517C86.5387 23.5189 88 26.0742 88 28.833V71.1182C88 73.8607 86.5387 76.416 84.1894 77.7995L47.8429 98.9583C46.6804 99.6338 45.3563 99.9837 44.0161 99.9837V100Z" fill="#878787"/>
</g>
<defs>
<clipPath id="clip0_192_18045">
<rect width="88" height="100" fill="white"/>
</clipPath>
</defs>
</svg>
