<svg width="100" height="60" viewBox="0 0 100 60" fill="none" xmlns="http://www.w3.org/2000/svg">
<g opacity="0.5" clip-path="url(#clip0_192_18064)">
<path fill-rule="evenodd" clip-rule="evenodd" d="M28.1809 21.7907C28.1809 23.0254 28.3138 24.0265 28.5466 24.7607C28.8127 25.4948 29.1454 26.2958 29.611 27.1633C29.7772 27.4303 29.8438 27.6973 29.8438 27.9309C29.8438 28.2647 29.6443 28.5982 29.212 28.932L27.1165 30.3335C26.8171 30.5337 26.518 30.6339 26.2519 30.6339C25.9192 30.6339 25.5868 30.4672 25.2541 30.1667C24.7885 29.6662 24.3895 29.1322 24.0568 28.5982C23.7241 28.0308 23.3917 27.3969 23.0257 26.6293C20.4313 29.6996 17.1721 31.2344 13.2475 31.2344C10.454 31.2344 8.22556 30.4334 6.59596 28.8318C4.96636 27.2298 4.13477 25.0942 4.13477 22.4246C4.13477 19.5879 5.13256 17.2855 7.16146 15.5502C9.19036 13.8149 11.8844 12.9474 15.3097 12.9474C16.4404 12.9474 17.6047 13.0474 18.8353 13.2144C20.0659 13.3812 21.3298 13.6482 22.66 13.9486V11.5125C22.66 8.97627 22.1278 7.20787 21.0967 6.17331C20.0323 5.13875 18.2365 4.63818 15.6754 4.63818C14.5114 4.63818 13.3141 4.77153 12.0835 5.07193C10.853 5.37233 9.65565 5.73926 8.49166 6.20642C7.95946 6.44 7.56046 6.57335 7.32766 6.64017C7.09486 6.70699 6.92866 6.7401 6.79546 6.7401C6.32986 6.7401 6.09706 6.40629 6.09706 5.70555V4.07049C6.09706 3.5365 6.16366 3.13617 6.32986 2.90259C6.49606 2.66901 6.79546 2.43543 7.26106 2.20185C8.42506 1.60104 9.82215 1.10047 11.4518 0.70013C13.0816 0.266381 14.8108 0.0662128 16.6402 0.0662128C20.5981 0.0662128 23.4916 0.967122 25.354 2.76924C27.1834 4.57136 28.1146 7.3075 28.1146 10.9783V21.7904H28.1812L28.1809 21.7907ZM14.6776 26.8629C15.7753 26.8629 16.906 26.6627 18.1033 26.2624C19.3006 25.8621 20.365 25.1279 21.2629 24.1268C21.7951 23.4929 22.1941 22.7918 22.3939 21.9911C22.5934 21.1902 22.7263 20.2224 22.7263 19.0879V17.6865C21.7618 17.4529 20.7307 17.2527 19.6666 17.1191C18.6022 16.9857 17.5714 16.9189 16.5403 16.9189C14.3119 16.9189 12.6823 17.3526 11.5847 18.2539C10.487 19.1548 9.95505 20.4229 9.95505 22.0914C9.95505 23.6599 10.3541 24.8278 11.1857 25.6285C11.984 26.4629 13.1479 26.8632 14.6779 26.8632L14.6776 26.8629ZM41.3845 30.4669C40.7857 30.4669 40.3867 30.3669 40.1206 30.133C39.8545 29.9329 39.6217 29.4657 39.4222 28.8315L31.6063 3.03623C31.4068 2.3689 31.3069 1.93516 31.3069 1.70157C31.3069 1.16759 31.573 0.867188 32.1052 0.867188H35.3647C35.9965 0.867188 36.4291 0.967423 36.6619 1.201C36.928 1.40117 37.1275 1.86833 37.327 2.50255L42.9145 24.5936L48.103 2.50255C48.2692 1.83522 48.4687 1.40117 48.7348 1.201C49.0009 1.00083 49.4665 0.867188 50.0653 0.867188H52.726C53.3578 0.867188 53.7904 0.967423 54.0565 1.201C54.3226 1.40117 54.5554 1.86833 54.6883 2.50255L59.9431 24.8606L65.697 2.50255C65.8965 1.83522 66.1293 1.40117 66.3621 1.201C66.6282 1.00083 67.0605 0.867188 67.6593 0.867188H70.7523C71.2845 0.867188 71.5839 1.13418 71.5839 1.70157C71.5839 1.86833 71.5506 2.03539 71.5173 2.23556C71.484 2.43573 71.4174 2.70272 71.2845 3.06995L63.2691 28.8652C63.0696 29.5325 62.8368 29.9663 62.5708 30.1667C62.3046 30.3669 61.8724 30.5006 61.3069 30.5006H58.4467C57.8146 30.5006 57.3823 30.4003 57.1162 30.1667C56.8501 29.9332 56.6173 29.4994 56.4844 28.8318L51.3292 7.3078L46.2073 28.7984C46.0411 29.4657 45.8413 29.8995 45.5752 30.133C45.3091 30.3666 44.8435 30.4669 44.245 30.4669H41.3848H41.3845ZM84.1221 31.3678C82.3926 31.3678 80.6631 31.1676 79.0002 30.7673C77.3373 30.3669 76.0401 29.9329 75.1755 29.4323C74.6433 29.1319 74.2776 28.7984 74.1444 28.498C74.0115 28.1976 73.9449 27.8641 73.9449 27.5637V25.8618C73.9449 25.161 74.211 24.8272 74.7099 24.8272C74.9094 24.8272 75.1089 24.8606 75.3084 24.9274C75.5079 24.9943 75.8073 25.1276 76.14 25.2613C77.2707 25.7618 78.5013 26.1622 79.7985 26.4292C81.129 26.6962 82.4259 26.8295 83.7564 26.8295C85.8516 26.8295 87.4815 26.4623 88.6122 25.7281C89.7429 24.994 90.3417 23.926 90.3417 22.5579C90.3417 21.6236 90.0423 20.8561 89.4438 20.2221C88.845 19.5879 87.7143 19.0208 86.0847 18.4868L81.2622 16.9851C78.8343 16.2176 77.0382 15.0831 75.9408 13.5814C74.8434 12.113 74.2779 10.478 74.2779 8.74269C74.2779 7.34121 74.5773 6.10649 75.1758 5.03852C75.7743 3.97055 76.5726 3.03623 77.5704 2.30208C78.5682 1.53452 79.6989 0.967423 81.0294 0.566785C82.3599 0.166147 83.7567 -0.000610352 85.2201 -0.000610352C85.9518 -0.000610352 86.7168 0.0328012 87.4485 0.132735C88.2135 0.23297 88.9119 0.366315 89.6103 0.499661C90.2754 0.666417 90.9075 0.833475 91.506 1.03364C92.1045 1.23381 92.5704 1.43398 92.9028 1.63445C93.3684 1.90144 93.7011 2.16843 93.9006 2.46854C94.1001 2.73553 94.2 3.10275 94.2 3.56992V5.13845C94.2 5.83919 93.9339 6.20642 93.435 6.20642C93.1689 6.20642 92.7366 6.07277 92.1711 5.80578C90.2754 4.93829 88.1466 4.50424 85.7853 4.50424C83.8896 4.50424 82.3929 4.80464 81.3618 5.43856C80.3307 6.07247 79.7985 7.04021 79.7985 8.40858C79.7985 9.3429 80.1312 10.1439 80.7963 10.7778C81.4614 11.4117 82.692 12.0459 84.4548 12.613L89.1777 14.1147C91.5723 14.8823 93.3018 15.9503 94.3329 17.3183C95.364 18.6864 95.8629 20.2549 95.8629 21.9902C95.8629 23.4251 95.5635 24.7267 94.9983 25.8612C94.3995 26.996 93.6015 27.9968 92.5704 28.7978C91.5393 29.6319 90.3087 30.2327 88.8786 30.6664C87.3819 31.1336 85.8189 31.3672 84.1224 31.3672L84.1221 31.3678Z" fill="#878787"/>
<path fill-rule="evenodd" clip-rule="evenodd" d="M90.4083 47.5862C79.4661 55.6953 63.5683 60 49.8991 60C30.7417 60 13.4807 52.8921 0.443007 41.0791C-0.588091 40.1448 0.343407 38.8766 1.574 39.6108C15.6758 47.8198 33.0703 52.7921 51.0631 52.7921C63.2026 52.7921 76.5394 50.2558 88.812 45.05C90.6411 44.2156 92.2044 46.2513 90.4083 47.5862Z" fill="#878787"/>
<path fill-rule="evenodd" clip-rule="evenodd" d="M94.9649 42.3804C93.5681 40.5782 85.7189 41.5126 82.1603 41.9466C81.0959 42.0799 80.9297 41.1456 81.8942 40.4449C88.1468 36.04 98.4239 37.3081 99.6212 38.7764C100.818 40.2781 99.2885 50.5897 93.4352 55.5283C92.5373 56.2958 91.6724 55.8955 92.0717 54.8943C93.4022 51.5905 96.362 44.1491 94.9652 42.3804H94.9649Z" fill="#878787"/>
</g>
<defs>
<clipPath id="clip0_192_18064">
<rect width="100" height="60" fill="white"/>
</clipPath>
</defs>
</svg>
