<svg width="100" height="100" viewBox="0 0 100 100" fill="none" xmlns="http://www.w3.org/2000/svg">
<g opacity="0.5" clip-path="url(#clip0_192_18058)">
<path d="M50 0C22.3877 0 0 22.3877 0 50C0 77.6123 22.3877 100 50 100C77.6123 100 100 77.6123 100 50C100 22.3877 77.6123 0 50 0ZM86.5641 30.013C86.7432 31.3395 86.8408 32.7637 86.8408 34.2936C86.8408 38.5173 86.0514 43.2699 83.6751 49.2188L70.9473 86.0107C83.3333 78.7923 91.6667 65.3646 91.6667 50C91.6667 42.7572 89.8193 35.9456 86.5641 30.013ZM50.7324 53.6458L38.2324 89.974C41.9678 91.0726 45.9147 91.6748 50 91.6748C54.8503 91.6748 59.5052 90.8366 63.8346 89.3148C63.7207 89.1357 63.6231 88.9486 63.5335 88.737L50.7324 53.6458ZM78.125 47.9004C78.125 42.749 76.2777 39.1846 74.6908 36.4095C72.5749 32.9753 70.5973 30.07 70.5973 26.6357C70.5973 22.8027 73.5026 19.2383 77.596 19.2383C77.7832 19.2383 77.9541 19.2627 78.1331 19.2708C70.7194 12.4756 60.8398 8.33333 50 8.33333C35.4411 8.33333 22.64 15.804 15.1855 27.1159C16.1621 27.1484 17.0817 27.1647 17.8711 27.1647C22.2249 27.1647 28.9795 26.6357 28.9795 26.6357C31.2256 26.5055 31.486 29.8014 29.248 30.07C29.248 30.07 26.9938 30.3304 24.4792 30.4688L39.6484 75.6022L48.7712 48.2585L42.277 30.4688C40.0309 30.3385 37.9069 30.07 37.9069 30.07C35.6608 29.9398 35.9212 26.5055 38.1673 26.6357C38.1673 26.6357 45.0439 27.1647 49.1374 27.1647C53.4912 27.1647 60.2458 26.6357 60.2458 26.6357C62.4919 26.5055 62.7523 29.8014 60.5143 30.07C60.5143 30.07 58.252 30.3304 55.7454 30.4688L70.8008 75.2523L75.0977 61.6292C77.0101 55.6803 78.125 51.4648 78.125 47.9004ZM8.33333 50C8.33333 66.4958 17.9199 80.7454 31.8197 87.5L11.9385 33.0404C9.62728 38.2243 8.33333 43.9535 8.33333 50ZM50 3.00293C56.3477 3.00293 62.5 4.24805 68.2943 6.69759C71.0775 7.8776 73.763 9.33431 76.2777 11.027C78.7679 12.7116 81.1117 14.6403 83.2357 16.7643C85.3597 18.8883 87.2966 21.2321 88.973 23.7223C90.6738 26.237 92.1305 28.9225 93.3024 31.7057C95.752 37.5 96.9971 43.6523 96.9971 50C96.9971 56.3477 95.752 62.5 93.3024 68.2943C92.1224 71.0775 90.6657 73.763 88.973 76.2777C87.2884 78.7679 85.3597 81.1117 83.2357 83.2357C81.1117 85.3597 78.7679 87.2966 76.2777 88.973C73.763 90.6738 71.0775 92.1305 68.2943 93.3024C62.5 95.752 56.3477 96.9971 50 96.9971C43.6523 96.9971 37.5 95.752 31.7057 93.3024C28.9225 92.1224 26.237 90.6657 23.7223 88.973C21.2321 87.2884 18.8883 85.3597 16.7643 83.2357C14.6403 81.1117 12.7035 78.7679 11.027 76.2777C9.32617 73.763 7.86947 71.0775 6.69759 68.2943C4.23991 62.5 3.00293 56.3477 3.00293 50C3.00293 43.6523 4.24805 37.5 6.69759 31.7057C7.8776 28.9225 9.33431 26.237 11.027 23.7223C12.7116 21.2321 14.6403 18.8883 16.7643 16.7643C18.8883 14.6403 21.2321 12.7035 23.7223 11.027C26.237 9.32617 28.9225 7.86947 31.7057 6.69759C37.5 4.23991 43.6523 3.00293 50 3.00293Z" fill="#878787"/>
</g>
<defs>
<clipPath id="clip0_192_18058">
<rect width="100" height="100" fill="white"/>
</clipPath>
</defs>
</svg>
