<svg width="100" height="100" viewBox="0 0 100 100" fill="none" xmlns="http://www.w3.org/2000/svg">
<g opacity="0.5" clip-path="url(#clip0_34_2095)">
<path fill-rule="evenodd" clip-rule="evenodd" d="M0 50V0H100V100H0V50Z" fill="black"/>
<path fill-rule="evenodd" clip-rule="evenodd" d="M21.9238 50.171V54.2481H34.9202V91.2517H44.1488V54.2481H57.1452V50.2442C57.1452 47.9981 57.1452 46.167 57.0475 46.1182C57.0475 46.045 49.1211 46.0206 39.4938 46.0206L21.9971 46.0938V50.1954L21.9238 50.171ZM80.3467 45.9961C82.8939 46.5984 84.847 47.7458 86.5967 49.5687C87.5244 50.5697 88.8997 52.3194 88.9974 52.767C88.9974 52.9135 84.6761 55.8432 82.0475 57.4708C81.9499 57.544 81.5511 57.1208 81.1442 56.4698C79.8421 54.6225 78.5156 53.8168 76.4404 53.6703C73.4375 53.4669 71.4437 55.0456 71.4437 57.6661C71.4437 58.4636 71.5902 58.9193 71.8913 59.5622C72.5667 60.9376 73.82 61.7595 77.6937 63.4603C84.847 66.5365 87.9476 68.5629 89.8193 71.46C91.9434 74.7071 92.4154 79.8096 90.9912 83.6345C89.388 87.8093 85.4899 90.6332 79.9154 91.5609C78.1657 91.862 74.1618 91.8132 72.29 91.4877C68.2943 90.739 64.4613 88.737 62.1175 86.1654C61.1898 85.1644 59.4157 82.487 59.5215 82.3161L60.4736 81.7139L64.2253 79.5411L67.0492 77.8891L67.7002 78.768C68.5221 80.07 70.3776 81.8197 71.4518 82.4219C74.6989 84.0984 79.0527 83.8705 81.2012 81.9255C82.1289 81.0792 82.5277 80.1758 82.5277 78.9226C82.5277 77.7751 82.3486 77.2461 81.779 76.3754C80.9814 75.2767 79.3783 74.3734 74.8779 72.3796C69.7022 70.1824 67.5049 68.7826 65.4541 66.626C64.2822 65.324 63.208 63.2976 62.7035 61.6293C62.3291 60.1807 62.207 56.6325 62.557 55.2003C63.6312 50.2035 67.4072 46.7042 72.8109 45.7032C74.5605 45.3532 78.6865 45.4997 80.4118 45.9555L80.3467 45.9961Z" fill="white"/>
</g>
<defs>
<clipPath id="clip0_34_2095">
<rect width="100" height="100" fill="white"/>
</clipPath>
</defs>
</svg>
