<svg width="100" height="100" viewBox="0 0 100 100" fill="none" xmlns="http://www.w3.org/2000/svg">
<g opacity="0.5" clip-path="url(#clip0_34_2085)">
<path d="M49.9453 99.7344C77.4517 99.7344 99.75 77.4361 99.75 49.9297C99.75 22.4233 77.4517 0.125 49.9453 0.125C22.4389 0.125 0.140625 22.4233 0.140625 49.9297C0.140625 77.4361 22.4389 99.7344 49.9453 99.7344Z" fill="black"/>
<path d="M82.8762 87.2944L38.4031 30.0078H30.0234V69.8354H36.7271V38.5207L77.6143 91.3473C79.4562 90.1146 81.2141 88.7606 82.8762 87.2944Z" fill="url(#paint0_linear_34_2085)"/>
<path fill-rule="evenodd" clip-rule="evenodd" d="M63.7803 30.0078H70.4205V69.8516H63.7803V30.0078Z" fill="url(#paint1_linear_34_2085)"/>
</g>
<defs>
<linearGradient id="paint0_linear_34_2085" x1="60.4599" y1="64.5949" x2="80.105" y2="88.944" gradientUnits="userSpaceOnUse">
<stop stop-color="white"/>
<stop offset="1" stop-color="white" stop-opacity="0"/>
</linearGradient>
<linearGradient id="paint1_linear_34_2085" x1="67.1004" y1="30.0087" x2="66.9891" y2="59.2689" gradientUnits="userSpaceOnUse">
<stop stop-color="white"/>
<stop offset="1" stop-color="white" stop-opacity="0"/>
</linearGradient>
<clipPath id="clip0_34_2085">
<rect width="100" height="100" fill="white"/>
</clipPath>
</defs>
</svg>
