<svg width="100" height="60" viewBox="0 0 100 60" fill="none" xmlns="http://www.w3.org/2000/svg">
<g opacity="0.5" clip-path="url(#clip0_34_2113)">
<path fill-rule="evenodd" clip-rule="evenodd" d="M28.1809 21.7908C28.1809 23.0255 28.3138 24.0267 28.5466 24.7608C28.8127 25.495 29.1454 26.2959 29.611 27.1634C29.7772 27.4304 29.8438 27.6974 29.8438 27.931C29.8438 28.2648 29.6443 28.5983 29.212 28.9321L27.1165 30.3336C26.8171 30.5338 26.518 30.634 26.2519 30.634C25.9192 30.634 25.5868 30.4673 25.2541 30.1669C24.7885 29.6663 24.3895 29.1323 24.0568 28.5983C23.7241 28.0309 23.3917 27.397 23.0257 26.6295C20.4313 29.6997 17.1721 31.2345 13.2475 31.2345C10.454 31.2345 8.22556 30.4336 6.59596 28.8319C4.96636 27.23 4.13477 25.0943 4.13477 22.4247C4.13477 19.588 5.13256 17.2856 7.16146 15.5504C9.19036 13.8151 11.8844 12.9476 15.3097 12.9476C16.4404 12.9476 17.6047 13.0475 18.8353 13.2145C20.0659 13.3813 21.3298 13.6483 22.66 13.9487V11.5127C22.66 8.97639 22.1278 7.20799 21.0967 6.17343C20.0323 5.13888 18.2365 4.63831 15.6754 4.63831C14.5114 4.63831 13.3141 4.77165 12.0835 5.07205C10.853 5.37246 9.65565 5.73938 8.49166 6.20654C7.95946 6.44012 7.56046 6.57347 7.32766 6.64029C7.09486 6.70711 6.92866 6.74023 6.79546 6.74023C6.32986 6.74023 6.09706 6.40641 6.09706 5.70567V4.07061C6.09706 3.53663 6.16366 3.13629 6.32986 2.90271C6.49606 2.66913 6.79546 2.43555 7.26106 2.20197C8.42506 1.60116 9.82215 1.10059 11.4518 0.700252C13.0816 0.266503 14.8108 0.0663349 16.6402 0.0663349C20.5981 0.0663349 23.4916 0.967244 25.354 2.76936C27.1834 4.57148 28.1146 7.30762 28.1146 10.9784V21.7905H28.1812L28.1809 21.7908ZM14.6776 26.863C15.7753 26.863 16.906 26.6629 18.1033 26.2625C19.3006 25.8622 20.365 25.128 21.2629 24.1269C21.7951 23.493 22.1941 22.7919 22.3939 21.9913C22.5934 21.1903 22.7263 20.2226 22.7263 19.0881V17.6866C21.7618 17.453 20.7307 17.2528 19.6666 17.1192C18.6022 16.9858 17.5714 16.919 16.5403 16.919C14.3119 16.919 12.6823 17.3528 11.5847 18.254C10.487 19.1549 9.95505 20.423 9.95505 22.0915C9.95505 23.66 10.3541 24.8279 11.1857 25.6286C11.984 26.463 13.1479 26.8633 14.6779 26.8633L14.6776 26.863ZM41.3845 30.467C40.7857 30.467 40.3867 30.367 40.1206 30.1332C39.8545 29.933 39.6217 29.4658 39.4222 28.8316L31.6063 3.03635C31.4068 2.36903 31.3069 1.93528 31.3069 1.7017C31.3069 1.16771 31.573 0.86731 32.1052 0.86731H35.3647C35.9965 0.86731 36.4291 0.967545 36.6619 1.20113C36.928 1.40129 37.1275 1.86845 37.327 2.50267L42.9145 24.5938L48.103 2.50267C48.2692 1.83534 48.4687 1.40129 48.7348 1.20113C49.0009 1.00096 49.4665 0.86731 50.0653 0.86731H52.726C53.3578 0.86731 53.7904 0.967545 54.0565 1.20113C54.3226 1.40129 54.5554 1.86845 54.6883 2.50267L59.9431 24.8607L65.697 2.50267C65.8965 1.83534 66.1293 1.40129 66.3621 1.20113C66.6282 1.00096 67.0605 0.86731 67.6593 0.86731H70.7523C71.2845 0.86731 71.5839 1.1343 71.5839 1.7017C71.5839 1.86845 71.5506 2.03551 71.5173 2.23568C71.484 2.43585 71.4174 2.70284 71.2845 3.07007L63.2691 28.8653C63.0696 29.5327 62.8368 29.9664 62.5708 30.1669C62.3046 30.367 61.8724 30.5007 61.3069 30.5007H58.4467C57.8146 30.5007 57.3823 30.4004 57.1162 30.1669C56.8501 29.9333 56.6173 29.4995 56.4844 28.8319L51.3292 7.30792L46.2073 28.7985C46.0411 29.4658 45.8413 29.8996 45.5752 30.1332C45.3091 30.3667 44.8435 30.467 44.245 30.467H41.3848H41.3845ZM84.1221 31.3679C82.3926 31.3679 80.6631 31.1677 79.0002 30.7674C77.3373 30.367 76.0401 29.933 75.1755 29.4324C74.6433 29.132 74.2776 28.7985 74.1444 28.4981C74.0115 28.1977 73.9449 27.8642 73.9449 27.5638V25.8619C73.9449 25.1611 74.211 24.8273 74.7099 24.8273C74.9094 24.8273 75.1089 24.8607 75.3084 24.9276C75.5079 24.9944 75.8073 25.1277 76.14 25.2614C77.2707 25.762 78.5013 26.1623 79.7985 26.4293C81.129 26.6963 82.4259 26.8296 83.7564 26.8296C85.8516 26.8296 87.4815 26.4624 88.6122 25.7282C89.7429 24.9941 90.3417 23.9261 90.3417 22.5581C90.3417 21.6237 90.0423 20.8562 89.4438 20.2223C88.845 19.588 87.7143 19.0209 86.0847 18.487L81.2622 16.9852C78.8343 16.2177 77.0382 15.0832 75.9408 13.5815C74.8434 12.1132 74.2779 10.4781 74.2779 8.74281C74.2779 7.34133 74.5773 6.10661 75.1758 5.03864C75.7743 3.97068 76.5726 3.03635 77.5704 2.3022C78.5682 1.53464 79.6989 0.967545 81.0294 0.566907C82.3599 0.166269 83.7567 -0.000488281 85.2201 -0.000488281C85.9518 -0.000488281 86.7168 0.0329233 87.4485 0.132857C88.2135 0.233092 88.9119 0.366437 89.6103 0.499783C90.2754 0.66654 90.9075 0.833598 91.506 1.03377C92.1045 1.23393 92.5704 1.4341 92.9028 1.63457C93.3684 1.90156 93.7011 2.16856 93.9006 2.46866C94.1001 2.73565 94.2 3.10288 94.2 3.57004V5.13858C94.2 5.83932 93.9339 6.20654 93.435 6.20654C93.1689 6.20654 92.7366 6.0729 92.1711 5.8059C90.2754 4.93841 88.1466 4.50436 85.7853 4.50436C83.8896 4.50436 82.3929 4.80476 81.3618 5.43868C80.3307 6.0726 79.7985 7.04033 79.7985 8.4087C79.7985 9.34302 80.1312 10.144 80.7963 10.7779C81.4614 11.4118 82.692 12.046 84.4548 12.6131L89.1777 14.1149C91.5723 14.8824 93.3018 15.9504 94.3329 17.3185C95.364 18.6865 95.8629 20.2551 95.8629 21.9904C95.8629 23.4253 95.5635 24.7268 94.9983 25.8613C94.3995 26.9961 93.6015 27.9969 92.5704 28.7979C91.5393 29.632 90.3087 30.2328 88.8786 30.6665C87.3819 31.1337 85.8189 31.3673 84.1224 31.3673L84.1221 31.3679Z" fill="black"/>
<path fill-rule="evenodd" clip-rule="evenodd" d="M90.4083 47.5863C79.4661 55.6954 63.5683 60.0001 49.8991 60.0001C30.7417 60.0001 13.4807 52.8921 0.443007 41.0792C-0.588091 40.1448 0.343407 38.8767 1.574 39.6109C15.6758 47.8199 33.0703 52.7922 51.0631 52.7922C63.2026 52.7922 76.5394 50.2559 88.812 45.05C90.6411 44.2156 92.2044 46.2513 90.4083 47.5863Z" fill="black"/>
<path fill-rule="evenodd" clip-rule="evenodd" d="M94.9649 42.3805C93.5681 40.5784 85.7189 41.5127 82.1603 41.9468C81.0959 42.0801 80.9297 41.1458 81.8942 40.445C88.1468 36.0401 98.4239 37.3083 99.6212 38.7766C100.818 40.2783 99.2885 50.5898 93.4352 55.5284C92.5373 56.296 91.6724 55.8956 92.0717 54.8945C93.4022 51.5907 96.362 44.1492 94.9652 42.3805H94.9649Z" fill="black"/>
</g>
<defs>
<clipPath id="clip0_34_2113">
<rect width="100" height="60" fill="white"/>
</clipPath>
</defs>
</svg>
