<svg width="88" height="100" viewBox="0 0 88 100" fill="none" xmlns="http://www.w3.org/2000/svg">
<g opacity="0.5" clip-path="url(#clip0_34_2091)">
<path fill-rule="evenodd" clip-rule="evenodd" d="M55.2462 70.8658C39.3417 70.8658 36.0073 63.509 36.0073 57.3323C36.0073 56.7463 36.4756 56.2743 37.0569 56.2743H41.7556C42.2723 56.2743 42.7083 56.6568 42.789 57.1695C43.4994 61.9954 45.6066 64.4286 55.2301 64.4286C62.8917 64.4286 66.1453 62.6871 66.1453 58.5855C66.1453 56.2255 65.2169 54.4758 53.3167 53.304C43.3622 52.3111 37.2103 50.1057 37.2103 42.0735C37.2103 34.6842 43.3945 30.2815 53.7607 30.2815C65.4026 30.2815 71.167 34.3505 71.8936 43.107C71.9178 43.4081 71.8128 43.7011 71.611 43.9208C71.4092 44.1324 71.1266 44.2626 70.836 44.2626H66.1211C65.6286 44.2626 65.2007 43.9127 65.1039 43.4407C63.9655 38.3707 61.2206 36.7431 53.7446 36.7431C45.3806 36.7431 44.4117 39.6809 44.4117 41.8782C44.4117 44.5474 45.5582 45.3287 56.8448 46.8342C68.0183 48.3316 73.3226 50.4394 73.3226 58.3577C73.3226 66.3411 66.7185 70.9146 55.1978 70.9146L55.2462 70.8658ZM44.0161 99.9999C42.684 99.9999 41.3681 99.65 40.2055 98.9745L28.0712 91.7317C26.2547 90.7063 27.1428 90.3482 27.7402 90.1366C30.1541 89.2822 30.6466 89.095 33.2301 87.6139C33.5046 87.4592 33.8598 87.5162 34.1343 87.679L43.4591 93.2535C43.7982 93.4407 44.2745 93.4407 44.5894 93.2535L80.9439 72.1028C81.2829 71.9075 81.5009 71.5168 81.5009 71.1099V28.8329C81.5009 28.4098 81.2829 28.0354 80.9358 27.8238L44.5894 6.68937C44.2503 6.48592 43.8062 6.48592 43.4672 6.68937L7.13688 27.8238C6.78165 28.0273 6.56367 28.4179 6.56367 28.8248V71.1099C6.56367 71.5168 6.78165 71.8993 7.12881 72.0946L17.0833 77.8889C22.4844 80.6152 25.7945 77.4006 25.7945 74.178V32.4381C25.7945 31.844 26.2547 31.3801 26.8521 31.3801H31.4539C32.0272 31.3801 32.5035 31.8359 32.5035 32.4381V74.1943C32.5035 81.4615 28.5717 85.6282 21.7417 85.6282C19.6426 85.6282 17.9794 85.6282 13.3615 83.3333L3.81064 77.7913C1.45321 76.4159 0 73.8525 0 71.1099V28.8248C0 26.0741 1.45321 23.5025 3.81064 22.1435L40.1974 0.984619C42.4983 -0.325602 45.5582 -0.325602 47.8429 0.984619L84.1894 22.1516C86.5387 23.5188 88 26.0741 88 28.8329V71.1181C88 73.8606 86.5387 76.4159 84.1894 77.7994L47.8429 98.9583C46.6804 99.6337 45.3563 99.9836 44.0161 99.9836V99.9999Z" fill="black"/>
</g>
<defs>
<clipPath id="clip0_34_2091">
<rect width="88" height="100" fill="white"/>
</clipPath>
</defs>
</svg>
